<svg id="Capa_1" enable-background="new 0 0 512 512" height="512" viewBox="0 0 512 512" width="512" xmlns="http://www.w3.org/2000/svg"><g><path d="m313.47 245.057v-66.128l45.195-45.195c30.554-30.553 30.554-80.267 0-110.819-30.555-30.554-80.266-30.551-110.818 0l-15.619 15.619-15.619-15.619c-30.554-30.554-80.267-30.553-110.819.001-14.8 14.799-22.951 34.478-22.951 55.409s8.151 40.609 22.951 55.409l114.572 114.572-.019 38.128-55.514 37.654v45.685c0 26.649 12.629 52.234 33.783 68.44l21.566 16.522-.043 57.265h158.265v-57.651l19.821-16.559c19.664-16.427 30.941-40.543 30.941-66.166v-87.714zm-186.427-132.576c-18.834-18.834-18.834-49.479 0-68.313 18.835-18.832 49.479-18.831 68.312 0l36.872 36.872 36.873-36.872c18.834-18.832 49.478-18.833 68.312.001 9.124 9.124 14.148 21.253 14.148 34.156 0 12.902-5.024 25.032-14.148 34.156l-30.521 30.521c-8.133-13.592-22.996-22.714-39.955-22.714-25.645 0-46.52 20.864-46.533 46.51l-.02 39.024zm272.061 259.143c0 16.691-7.346 32.399-20.154 43.1l-30.607 25.572v41.648h-98.129l.032-42.034-33.354-25.555c-13.779-10.557-22.006-27.222-22.006-44.581v-29.752l25.439-17.255-.015 29.043 30.057.016.093-185.011c.005-9.081 7.396-16.469 16.477-16.469 9.086 0 16.476 7.392 16.476 16.477v132.62h30.057v-22.677l85.635 28.759v66.099z"/></g></svg>