<svg xmlns="http://www.w3.org/2000/svg" viewBox="0 0 678.89 94.36"><defs><style>.cls-1{fill:#3edd82;}</style></defs><title>logo-solo</title><g id="Camada_2" data-name="Camada 2"><g id="Camada_1-2" data-name="Camada 1"><path class="cls-1" d="M48.75,70.64a4,4,0,0,1,1.52-.71,5.86,5.86,0,0,1,1.12-.15,4,4,0,0,1,1.77.4,4.8,4.8,0,0,1,1.66,1.72l6.41,9.67a9,9,0,0,1,.54,1,2.45,2.45,0,0,1,.26.92,2.91,2.91,0,0,1-.83,2.14,10.46,10.46,0,0,1-1.8,1.46,43,43,0,0,1-10.27,5.24,35.33,35.33,0,0,1-11.82,2A37.57,37.57,0,0,1,27.38,93a36.78,36.78,0,0,1-8.9-3.75,38.62,38.62,0,0,1-7.55-5.84,35.74,35.74,0,0,1-5.84-7.58,38.81,38.81,0,0,1-3.74-9,38.57,38.57,0,0,1,0-20.23,37.93,37.93,0,0,1,3.74-9A35.88,35.88,0,0,1,10.93,30a38.08,38.08,0,0,1,7.55-5.81,37.24,37.24,0,0,1,18.83-5,38.25,38.25,0,0,1,11.53,1.66,35.41,35.41,0,0,1,9.93,4.92l-.17-.17a6.85,6.85,0,0,1,2,1.74,4.11,4.11,0,0,1,.74,2.49A4,4,0,0,1,60.66,32l-5.1,8.64c-1.07,1.87-2.36,2.8-3.89,2.8a4,4,0,0,1-1.26-.25,7.61,7.61,0,0,1-1.66-.89,26.28,26.28,0,0,0-5.4-2.72,17.92,17.92,0,0,0-6.16-1.06,15.12,15.12,0,0,0-6.63,1.46,15.49,15.49,0,0,0-5.18,4A18.68,18.68,0,0,0,22,49.76a21.13,21.13,0,0,0,0,14,17.45,17.45,0,0,0,3.35,5.7,15.65,15.65,0,0,0,11.81,5.2,16.41,16.41,0,0,0,6.13-1.14A27.64,27.64,0,0,0,48.75,70.64Z"/><path class="cls-1" d="M84.29,24.81a5,5,0,0,1,1-3.15,3.81,3.81,0,0,1,3.2-1.32h13.11a4,4,0,0,1,1.48.32,5,5,0,0,1,1.49.91A6,6,0,0,1,105.78,23a3.47,3.47,0,0,1,.48,1.83v63.8a4.27,4.27,0,0,1-1.2,3.29A4.88,4.88,0,0,1,101.63,93H88.52q-4.23,0-4.23-4.41Z"/><path class="cls-1" d="M132.93,21.37a3.46,3.46,0,0,1,1.57-.8,7.42,7.42,0,0,1,1.57-.18h8.64a3.93,3.93,0,0,1,1.78.38,3.83,3.83,0,0,1,1.26,1,5.41,5.41,0,0,1,.83,1.42c.21.54.41,1.09.6,1.66l1.2,5a13.6,13.6,0,0,1,2.77-3.65,21.34,21.34,0,0,1,4.75-3.43,30.62,30.62,0,0,1,6.56-2.54,32.21,32.21,0,0,1,8.29-1,25.53,25.53,0,0,1,20.35,9.35,30.41,30.41,0,0,1,5.43,10.14,40.31,40.31,0,0,1,1.86,12.38V88.61a5,5,0,0,1-.94,3.29,3.74,3.74,0,0,1-3,1.12H183.23a5.13,5.13,0,0,1-3.38-.83c-.61-.56-.92-1.63-.92-3.24V51.7A10.22,10.22,0,0,0,177.82,47a13.67,13.67,0,0,0-2.95-3.89,13.82,13.82,0,0,0-4.15-2.66,12.06,12.06,0,0,0-4.72-1,10.67,10.67,0,0,0-4.2.92,14.24,14.24,0,0,0-4,2.54,15.08,15.08,0,0,0-3,3.84,11.28,11.28,0,0,0-1.4,4.78V88.78a5.39,5.39,0,0,1-.37,2,3,3,0,0,1-1.12,1.48,4.87,4.87,0,0,1-1.4.63A5.74,5.74,0,0,1,149,93H136.07a4,4,0,0,1-4.63-4.41v-64a4.14,4.14,0,0,1,.49-2,3.53,3.53,0,0,1,1.34-1.42Z"/><path class="cls-1" d="M286.45,84.32a38.07,38.07,0,0,1-11.33,7.24,34.61,34.61,0,0,1-13.33,2.6,38.91,38.91,0,0,1-27.07-10.79,37.91,37.91,0,0,1-8.35-11.93,36,36,0,0,1-3.09-14.93A38.68,38.68,0,0,1,228,37.91a37.75,37.75,0,0,1,5.49-7.58,34.8,34.8,0,0,1,7.24-5.92,35.85,35.85,0,0,1,8.7-3.84,35.29,35.29,0,0,1,9.9-1.37,33.68,33.68,0,0,1,9.21,1.26A35.81,35.81,0,0,1,276.93,24a36.27,36.27,0,0,1,7.18,5.49,37.54,37.54,0,0,1,5.61,7,34,34,0,0,1,3.63,8.12,31,31,0,0,1,1.29,8.9c0,2,0,3.61-.09,4.87a5.44,5.44,0,0,1-.89,3A4.34,4.34,0,0,1,291,63a26.57,26.57,0,0,1-5.46.42h-41.2a14.11,14.11,0,0,0,2.32,6.13,14.54,14.54,0,0,0,4,3.92,16.29,16.29,0,0,0,4.86,2.09,20.51,20.51,0,0,0,4.87.62,22.29,22.29,0,0,0,4.23-.42,30.71,30.71,0,0,0,4.21-1.15,23.49,23.49,0,0,0,3.72-1.66,12.83,12.83,0,0,0,2.72-2,11.71,11.71,0,0,1,1.57-1.12,2.77,2.77,0,0,1,1.4-.37,2.7,2.7,0,0,1,1.52.52,11.87,11.87,0,0,1,1.74,1.48l6.07,6.87a3.77,3.77,0,0,1,.8,1.34,4.74,4.74,0,0,1,.17,1.23,3.17,3.17,0,0,1-.63,2A7.12,7.12,0,0,1,286.45,84.32ZM258.93,36.65a11,11,0,0,0-4.32.89,16.34,16.34,0,0,0-3.92,2.37,20.64,20.64,0,0,0-3.29,3.38A21.05,21.05,0,0,0,245,47.12h29.24A34.88,34.88,0,0,0,271.66,43a17.68,17.68,0,0,0-3.2-3.32,14.1,14.1,0,0,0-4.12-2.23A16.7,16.7,0,0,0,258.93,36.65Z"/><path class="cls-1" d="M526.22,88.7a5.07,5.07,0,0,1-.35,1.85,4.43,4.43,0,0,1-2.63,2.21,8.09,8.09,0,0,1-1.49.17H510.48a5.09,5.09,0,0,1-2-.32,3,3,0,0,1-1.2-.88,5.31,5.31,0,0,1-.77-1.4c-.21-.56-.43-1.16-.66-1.81L505.16,86a33.77,33.77,0,0,1-3.52,3,27.58,27.58,0,0,1-4.35,2.66,27.26,27.26,0,0,1-5.09,1.89,22,22,0,0,1-5.64.72,37.23,37.23,0,0,1-18.91-5.07,36.82,36.82,0,0,1-7.53-5.83,37.41,37.41,0,0,1-5.8-7.59,37,37,0,0,1-3.75-9,38.16,38.16,0,0,1-1.32-10.1,37.21,37.21,0,0,1,2.92-14.79A37.74,37.74,0,0,1,460.12,30a37.05,37.05,0,0,1,26.44-10.85,26.2,26.2,0,0,1,6.61.8,25.37,25.37,0,0,1,5.61,2.18,21.72,21.72,0,0,1,4.6,3.29A25.17,25.17,0,0,1,507,29.53l1.66-5.21c.38-.95.69-1.73.94-2.32a4.17,4.17,0,0,1,.8-1.31,2.17,2.17,0,0,1,1.06-.58,8.91,8.91,0,0,1,1.78-.14h8.52a8.09,8.09,0,0,1,1.49.17,2.91,2.91,0,0,1,1.49.8,3.73,3.73,0,0,1,1.14,1.43,4.64,4.64,0,0,1,.35,1.84ZM469.85,56.65A21,21,0,0,0,471,63.72a16.9,16.9,0,0,0,3.35,5.69,15.88,15.88,0,0,0,12,5.21,18.05,18.05,0,0,0,7.12-1.4,18.4,18.4,0,0,0,5.73-3.81,17.17,17.17,0,0,0,3.8-5.69,18.7,18.7,0,0,0,0-14,18.47,18.47,0,0,0-3.8-5.84,18,18,0,0,0-5.73-4,17.25,17.25,0,0,0-7.12-1.46,15.45,15.45,0,0,0-6.78,1.46,15.79,15.79,0,0,0-5.24,4A18.22,18.22,0,0,0,471,49.67,20.83,20.83,0,0,0,469.85,56.65Z"/><path class="cls-1" d="M555.8,8.93A3.12,3.12,0,0,1,557,6.27a13,13,0,0,1,3.35-1.69l13-4.52a2.62,2.62,0,0,1,.54-.06h.49a3,3,0,0,1,2.83,1.23,6.36,6.36,0,0,1,.72,3.23l-.06,15.74h7.84a4.15,4.15,0,0,1,3,1.09,4.29,4.29,0,0,1,1.14,3.26v11a4.74,4.74,0,0,1-1.14,3.52,4.08,4.08,0,0,1-3,1.12h-7.84l.06,48.29a4.16,4.16,0,0,1-1.26,3.29,5,5,0,0,1-3.49,1.12H560.21q-4.41,0-4.41-4.41l-.06-48.29h-5.89q-4.41,0-4.41-4.64v-11q0-4.35,4.41-4.35h5.89Z"/><path class="cls-1" d="M670.7,84.23a37.88,37.88,0,0,1-11.33,7.24A34.43,34.43,0,0,1,646,94.07,39,39,0,0,1,619,83.29a38.14,38.14,0,0,1-8.35-11.93,36,36,0,0,1-3.09-14.94,38.76,38.76,0,0,1,4.72-18.6,38,38,0,0,1,5.49-7.58A34.8,34.8,0,0,1,625,24.32a35.45,35.45,0,0,1,8.7-3.83,34.93,34.93,0,0,1,9.9-1.38,33.68,33.68,0,0,1,9.21,1.26,35.81,35.81,0,0,1,8.39,3.55,36.65,36.65,0,0,1,7.18,5.49,37.4,37.4,0,0,1,5.6,7,33.76,33.76,0,0,1,3.64,8.13,30.91,30.91,0,0,1,1.29,8.9q0,3-.09,4.86a5.44,5.44,0,0,1-.89,3,4.29,4.29,0,0,1-2.66,1.55,25.74,25.74,0,0,1-5.46.43h-41.2a14.24,14.24,0,0,0,2.31,6.12,14.57,14.57,0,0,0,4,3.92,16.18,16.18,0,0,0,4.86,2.09,20.54,20.54,0,0,0,4.87.63,21.53,21.53,0,0,0,4.23-.43,32.18,32.18,0,0,0,4.21-1.14,24.43,24.43,0,0,0,3.72-1.66,12.19,12.19,0,0,0,2.71-2,11.51,11.51,0,0,1,1.58-1.11,2.61,2.61,0,0,1,2.92.14,12,12,0,0,1,1.74,1.49l6.07,6.86a4,4,0,0,1,.8,1.35,4.62,4.62,0,0,1,.17,1.23,3.16,3.16,0,0,1-.63,2A6.88,6.88,0,0,1,670.7,84.23ZM643.18,36.57a10.94,10.94,0,0,0-4.32.88,16.38,16.38,0,0,0-3.92,2.38,20.19,20.19,0,0,0-3.29,3.37A20.85,20.85,0,0,0,629.27,47h29.24a32.84,32.84,0,0,0-2.6-4.12,17.38,17.38,0,0,0-3.2-3.32,13.77,13.77,0,0,0-4.12-2.23A16.43,16.43,0,0,0,643.18,36.57Z"/><path class="cls-1" d="M317.66,82.75c1.26,4.63,5.23,11,11.59,11.58.38,0,5.9.46,9.39-3.7a11.34,11.34,0,0,0,2.29-8.71c-1-5.78-6.19-6.21-7.4-11.27-1.15-4.83,2.84-7.58,5-13.92,1.53-4.49,2.34-11.43-1.59-21.63-.17,13.29-4.2,20.23-8,24.14-3.3,3.37-7,5.08-9.65,10.64C318.34,71.78,316.06,76.84,317.66,82.75Z"/><path class="cls-1" d="M426.18,83.75a11.59,11.59,0,0,1-22,4h0q-5.41-13.15-10.81-26.32L382.53,87.75l-.11,0a11.59,11.59,0,0,1-21.49-1.37Q350.46,60.89,340,35.43c-.11-.25-.21-.49-.31-.74a11.59,11.59,0,1,1,21.93-7.51.19.19,0,0,1,0,.07Q366.86,39.84,372,52.42q5-12.18,10-24.35a11.58,11.58,0,0,1,22.43-.5l20.38,49.62s0,0,0,0A11.71,11.71,0,0,1,426.18,83.75Z"/></g></g></svg>