<svg xmlns="http://www.w3.org/2000/svg" viewBox="0 0 678.89 180.36"><defs><style>.cls-1{fill:#3edd82;}.cls-2{fill:#333;}</style></defs><title>logo</title><g id="Camada_2" data-name="Camada 2"><g id="Camada_1-2" data-name="Camada 1"><path class="cls-1" d="M48.75,70.64a4,4,0,0,1,1.52-.71,5.86,5.86,0,0,1,1.12-.15,4,4,0,0,1,1.77.4,4.8,4.8,0,0,1,1.66,1.72l6.41,9.67a9,9,0,0,1,.54,1,2.45,2.45,0,0,1,.26.92,2.91,2.91,0,0,1-.83,2.14,10.46,10.46,0,0,1-1.8,1.46,43,43,0,0,1-10.27,5.24,35.33,35.33,0,0,1-11.82,2A37.57,37.57,0,0,1,27.38,93a36.78,36.78,0,0,1-8.9-3.75,38.62,38.62,0,0,1-7.55-5.84,35.74,35.74,0,0,1-5.84-7.58,38.81,38.81,0,0,1-3.74-9,38.57,38.57,0,0,1,0-20.23,37.93,37.93,0,0,1,3.74-9A35.88,35.88,0,0,1,10.93,30a38.08,38.08,0,0,1,7.55-5.81,37.24,37.24,0,0,1,18.83-5,38.25,38.25,0,0,1,11.53,1.66,35.41,35.41,0,0,1,9.93,4.92l-.17-.17a6.85,6.85,0,0,1,2,1.74,4.11,4.11,0,0,1,.74,2.49A4,4,0,0,1,60.66,32l-5.1,8.64c-1.07,1.87-2.36,2.8-3.89,2.8a4,4,0,0,1-1.26-.25,7.61,7.61,0,0,1-1.66-.89,26.28,26.28,0,0,0-5.4-2.72,17.92,17.92,0,0,0-6.16-1.06,15.12,15.12,0,0,0-6.63,1.46,15.49,15.49,0,0,0-5.18,4A18.68,18.68,0,0,0,22,49.76a21.13,21.13,0,0,0,0,14,17.45,17.45,0,0,0,3.35,5.7,15.65,15.65,0,0,0,11.81,5.2,16.41,16.41,0,0,0,6.13-1.14A27.64,27.64,0,0,0,48.75,70.64Z"/><path class="cls-1" d="M84.29,24.81a5,5,0,0,1,1-3.15,3.81,3.81,0,0,1,3.2-1.32h13.11a4,4,0,0,1,1.48.32,5,5,0,0,1,1.49.91A6,6,0,0,1,105.78,23a3.47,3.47,0,0,1,.48,1.83v63.8a4.27,4.27,0,0,1-1.2,3.29A4.88,4.88,0,0,1,101.63,93H88.52q-4.23,0-4.23-4.41Z"/><path class="cls-1" d="M132.93,21.37a3.46,3.46,0,0,1,1.57-.8,7.42,7.42,0,0,1,1.57-.18h8.64a3.93,3.93,0,0,1,1.78.38,3.83,3.83,0,0,1,1.26,1,5.41,5.41,0,0,1,.83,1.42c.21.54.41,1.09.6,1.66l1.2,5a13.6,13.6,0,0,1,2.77-3.65,21.34,21.34,0,0,1,4.75-3.43,30.62,30.62,0,0,1,6.56-2.54,32.21,32.21,0,0,1,8.29-1,25.53,25.53,0,0,1,20.35,9.35,30.41,30.41,0,0,1,5.43,10.14,40.31,40.31,0,0,1,1.86,12.38V88.61a5,5,0,0,1-.94,3.29,3.74,3.74,0,0,1-3,1.12H183.23a5.13,5.13,0,0,1-3.38-.83c-.61-.56-.92-1.63-.92-3.24V51.7A10.22,10.22,0,0,0,177.82,47a13.67,13.67,0,0,0-2.95-3.89,13.82,13.82,0,0,0-4.15-2.66,12.06,12.06,0,0,0-4.72-1,10.67,10.67,0,0,0-4.2.92,14.24,14.24,0,0,0-4,2.54,15.08,15.08,0,0,0-3,3.84,11.28,11.28,0,0,0-1.4,4.78V88.78a5.39,5.39,0,0,1-.37,2,3,3,0,0,1-1.12,1.48,4.87,4.87,0,0,1-1.4.63A5.74,5.74,0,0,1,149,93H136.07a4,4,0,0,1-4.63-4.41v-64a4.14,4.14,0,0,1,.49-2,3.53,3.53,0,0,1,1.34-1.42Z"/><path class="cls-1" d="M286.45,84.32a38.07,38.07,0,0,1-11.33,7.24,34.61,34.61,0,0,1-13.33,2.6,38.91,38.91,0,0,1-27.07-10.79,37.91,37.91,0,0,1-8.35-11.93,36,36,0,0,1-3.09-14.93A38.68,38.68,0,0,1,228,37.91a37.75,37.75,0,0,1,5.49-7.58,34.8,34.8,0,0,1,7.24-5.92,35.85,35.85,0,0,1,8.7-3.84,35.29,35.29,0,0,1,9.9-1.37,33.68,33.68,0,0,1,9.21,1.26A35.81,35.81,0,0,1,276.93,24a36.27,36.27,0,0,1,7.18,5.49,37.54,37.54,0,0,1,5.61,7,34,34,0,0,1,3.63,8.12,31,31,0,0,1,1.29,8.9c0,2,0,3.61-.09,4.87a5.44,5.44,0,0,1-.89,3A4.34,4.34,0,0,1,291,63a26.57,26.57,0,0,1-5.46.42h-41.2a14.11,14.11,0,0,0,2.32,6.13,14.54,14.54,0,0,0,4,3.92,16.29,16.29,0,0,0,4.86,2.09,20.51,20.51,0,0,0,4.87.62,22.29,22.29,0,0,0,4.23-.42,30.71,30.71,0,0,0,4.21-1.15,23.49,23.49,0,0,0,3.72-1.66,12.83,12.83,0,0,0,2.72-2,11.71,11.71,0,0,1,1.57-1.12,2.77,2.77,0,0,1,1.4-.37,2.7,2.7,0,0,1,1.52.52,11.87,11.87,0,0,1,1.74,1.48l6.07,6.87a3.77,3.77,0,0,1,.8,1.34,4.74,4.74,0,0,1,.17,1.23,3.17,3.17,0,0,1-.63,2A7.12,7.12,0,0,1,286.45,84.32ZM258.93,36.65a11,11,0,0,0-4.32.89,16.34,16.34,0,0,0-3.92,2.37,20.64,20.64,0,0,0-3.29,3.38A21.05,21.05,0,0,0,245,47.12h29.24A34.88,34.88,0,0,0,271.66,43a17.68,17.68,0,0,0-3.2-3.32,14.1,14.1,0,0,0-4.12-2.23A16.7,16.7,0,0,0,258.93,36.65Z"/><path class="cls-1" d="M526.22,88.7a5.07,5.07,0,0,1-.35,1.85,4.43,4.43,0,0,1-2.63,2.21,8.09,8.09,0,0,1-1.49.17H510.48a5.09,5.09,0,0,1-2-.32,3,3,0,0,1-1.2-.88,5.31,5.31,0,0,1-.77-1.4c-.21-.56-.43-1.16-.66-1.81L505.16,86a33.77,33.77,0,0,1-3.52,3,27.58,27.58,0,0,1-4.35,2.66,27.26,27.26,0,0,1-5.09,1.89,22,22,0,0,1-5.64.72,37.23,37.23,0,0,1-18.91-5.07,36.82,36.82,0,0,1-7.53-5.83,37.41,37.41,0,0,1-5.8-7.59,37,37,0,0,1-3.75-9,38.16,38.16,0,0,1-1.32-10.1,37.21,37.21,0,0,1,2.92-14.79A37.74,37.74,0,0,1,460.12,30a37.05,37.05,0,0,1,26.44-10.85,26.2,26.2,0,0,1,6.61.8,25.37,25.37,0,0,1,5.61,2.18,21.72,21.72,0,0,1,4.6,3.29A25.17,25.17,0,0,1,507,29.53l1.66-5.21c.38-.95.69-1.73.94-2.32a4.17,4.17,0,0,1,.8-1.31,2.17,2.17,0,0,1,1.06-.58,8.91,8.91,0,0,1,1.78-.14h8.52a8.09,8.09,0,0,1,1.49.17,2.91,2.91,0,0,1,1.49.8,3.73,3.73,0,0,1,1.14,1.43,4.64,4.64,0,0,1,.35,1.84ZM469.85,56.65A21,21,0,0,0,471,63.72a16.9,16.9,0,0,0,3.35,5.69,15.88,15.88,0,0,0,12,5.21,18.05,18.05,0,0,0,7.12-1.4,18.4,18.4,0,0,0,5.73-3.81,17.17,17.17,0,0,0,3.8-5.69,18.7,18.7,0,0,0,0-14,18.47,18.47,0,0,0-3.8-5.84,18,18,0,0,0-5.73-4,17.25,17.25,0,0,0-7.12-1.46,15.45,15.45,0,0,0-6.78,1.46,15.79,15.79,0,0,0-5.24,4A18.22,18.22,0,0,0,471,49.67,20.83,20.83,0,0,0,469.85,56.65Z"/><path class="cls-1" d="M555.8,8.93A3.12,3.12,0,0,1,557,6.27a13,13,0,0,1,3.35-1.69l13-4.52a2.62,2.62,0,0,1,.54-.06h.49a3,3,0,0,1,2.83,1.23,6.36,6.36,0,0,1,.72,3.23l-.06,15.74h7.84a4.15,4.15,0,0,1,3,1.09,4.29,4.29,0,0,1,1.14,3.26v11a4.74,4.74,0,0,1-1.14,3.52,4.08,4.08,0,0,1-3,1.12h-7.84l.06,48.29a4.16,4.16,0,0,1-1.26,3.29,5,5,0,0,1-3.49,1.12H560.21q-4.41,0-4.41-4.41l-.06-48.29h-5.89q-4.41,0-4.41-4.64v-11q0-4.35,4.41-4.35h5.89Z"/><path class="cls-1" d="M670.7,84.23a37.88,37.88,0,0,1-11.33,7.24A34.43,34.43,0,0,1,646,94.07,39,39,0,0,1,619,83.29a38.14,38.14,0,0,1-8.35-11.93,36,36,0,0,1-3.09-14.94,38.76,38.76,0,0,1,4.72-18.6,38,38,0,0,1,5.49-7.58A34.8,34.8,0,0,1,625,24.32a35.45,35.45,0,0,1,8.7-3.83,34.93,34.93,0,0,1,9.9-1.38,33.68,33.68,0,0,1,9.21,1.26,35.81,35.81,0,0,1,8.39,3.55,36.65,36.65,0,0,1,7.18,5.49,37.4,37.4,0,0,1,5.6,7,33.76,33.76,0,0,1,3.64,8.13,30.91,30.91,0,0,1,1.29,8.9q0,3-.09,4.86a5.44,5.44,0,0,1-.89,3,4.29,4.29,0,0,1-2.66,1.55,25.74,25.74,0,0,1-5.46.43h-41.2a14.24,14.24,0,0,0,2.31,6.12,14.57,14.57,0,0,0,4,3.92,16.18,16.18,0,0,0,4.86,2.09,20.54,20.54,0,0,0,4.87.63,21.53,21.53,0,0,0,4.23-.43,32.18,32.18,0,0,0,4.21-1.14,24.43,24.43,0,0,0,3.72-1.66,12.19,12.19,0,0,0,2.71-2,11.51,11.51,0,0,1,1.58-1.11,2.61,2.61,0,0,1,2.92.14,12,12,0,0,1,1.74,1.49l6.07,6.86a4,4,0,0,1,.8,1.35,4.62,4.62,0,0,1,.17,1.23,3.16,3.16,0,0,1-.63,2A6.88,6.88,0,0,1,670.7,84.23ZM643.18,36.57a10.94,10.94,0,0,0-4.32.88,16.38,16.38,0,0,0-3.92,2.38,20.19,20.19,0,0,0-3.29,3.37A20.85,20.85,0,0,0,629.27,47h29.24a32.84,32.84,0,0,0-2.6-4.12,17.38,17.38,0,0,0-3.2-3.32,13.77,13.77,0,0,0-4.12-2.23A16.43,16.43,0,0,0,643.18,36.57Z"/><path class="cls-1" d="M317.66,82.75c1.26,4.63,5.23,11,11.59,11.58.38,0,5.9.46,9.39-3.7a11.34,11.34,0,0,0,2.29-8.71c-1-5.78-6.19-6.21-7.4-11.27-1.15-4.83,2.84-7.58,5-13.92,1.53-4.49,2.34-11.43-1.59-21.63-.17,13.29-4.2,20.23-8,24.14-3.3,3.37-7,5.08-9.65,10.64C318.34,71.78,316.06,76.84,317.66,82.75Z"/><path class="cls-1" d="M426.18,83.75a11.59,11.59,0,0,1-22,4h0q-5.41-13.15-10.81-26.32L382.53,87.75l-.11,0a11.59,11.59,0,0,1-21.49-1.37Q350.46,60.89,340,35.43c-.11-.25-.21-.49-.31-.74a11.59,11.59,0,1,1,21.93-7.51.19.19,0,0,1,0,.07Q366.86,39.84,372,52.42q5-12.18,10-24.35a11.58,11.58,0,0,1,22.43-.5l20.38,49.62s0,0,0,0A11.71,11.71,0,0,1,426.18,83.75Z"/><path class="cls-2" d="M.48,147.77a1.08,1.08,0,0,1,.51-.26,2.37,2.37,0,0,1,.52-.06h2.8a1.28,1.28,0,0,1,.58.12,1.2,1.2,0,0,1,.41.33,1.74,1.74,0,0,1,.27.46c.07.17.13.35.19.54l.39,1.63a6.36,6.36,0,0,1,.8-1.19,5.62,5.62,0,0,1,1.32-1.11,8,8,0,0,1,1.91-.83,9.5,9.5,0,0,1,2.59-.32,9.33,9.33,0,0,1,2.13.23,6.59,6.59,0,0,1,1.75.69,6.44,6.44,0,0,1,1.44,1.11,10.48,10.48,0,0,1,1.23,1.51,5.48,5.48,0,0,1,1.05-1.2A8.1,8.1,0,0,1,22,148.27a11.06,11.06,0,0,1,2.16-.86,9.43,9.43,0,0,1,2.53-.33,7.89,7.89,0,0,1,3.7.82,7.53,7.53,0,0,1,2.63,2.22,9.93,9.93,0,0,1,1.57,3.29,15,15,0,0,1,.52,4v12.18a1.61,1.61,0,0,1-.3,1.06,1.2,1.2,0,0,1-1,.37h-4.3a1.65,1.65,0,0,1-1.09-.27,1.4,1.4,0,0,1-.3-1.05V157.44a4.24,4.24,0,0,0-.25-1.49,3.75,3.75,0,0,0-.7-1.2,3.12,3.12,0,0,0-1.09-.8,3.43,3.43,0,0,0-1.42-.29,3.22,3.22,0,0,0-1.34.28,3.57,3.57,0,0,0-1.88,2,3.88,3.88,0,0,0-.29,1.54v12.18a1.61,1.61,0,0,1-.31,1.06,1.18,1.18,0,0,1-1,.37H15.62a1.68,1.68,0,0,1-1.1-.27,1.4,1.4,0,0,1-.3-1.05V157.44A4.48,4.48,0,0,0,14,156a3.52,3.52,0,0,0-.67-1.2,3,3,0,0,0-1.06-.8,3.3,3.3,0,0,0-1.4-.29,3.34,3.34,0,0,0-1.31.27,3.84,3.84,0,0,0-1.15.76,4.27,4.27,0,0,0-.86,1.18,4,4,0,0,0-.4,1.53v12.27a1.76,1.76,0,0,1-.12.63,1.07,1.07,0,0,1-.36.49,1.78,1.78,0,0,1-.46.2,1.83,1.83,0,0,1-.49.06H1.51a1.5,1.5,0,0,1-1.16-.39,1.52,1.52,0,0,1-.35-1v-20.8a1.33,1.33,0,0,1,.16-.65,1.14,1.14,0,0,1,.44-.46Z"/><path class="cls-2" d="M67.64,169.67a1.61,1.61,0,0,1-.11.61.91.91,0,0,1-.37.45,1,1,0,0,1-.48.26,2.41,2.41,0,0,1-.49.06H62.53a1.58,1.58,0,0,1-.63-.11.93.93,0,0,1-.39-.28,1.56,1.56,0,0,1-.25-.46l-.22-.58-.24-.84a10.35,10.35,0,0,1-1.14,1,8.68,8.68,0,0,1-1.42.87,8.51,8.51,0,0,1-1.65.61,7,7,0,0,1-1.83.23,12.43,12.43,0,0,1-3.25-.42,12.2,12.2,0,0,1-2.9-1.22,11.85,11.85,0,0,1-2.44-1.9,12.58,12.58,0,0,1-1.89-2.46,12.24,12.24,0,0,1-1.22-2.93,12.66,12.66,0,0,1-.42-3.28,12.17,12.17,0,0,1,.94-4.81,12.46,12.46,0,0,1,2.59-3.87A12.06,12.06,0,0,1,50,148a11.9,11.9,0,0,1,4.74-.94,8.68,8.68,0,0,1,2.15.26,7.92,7.92,0,0,1,1.82.71,7,7,0,0,1,1.49,1.07,8.27,8.27,0,0,1,1.18,1.34l.54-1.69q.18-.47.3-.75a1.52,1.52,0,0,1,.26-.43.73.73,0,0,1,.35-.18,2.65,2.65,0,0,1,.57,0h2.77a2.41,2.41,0,0,1,.49.06.88.88,0,0,1,.48.26,1.15,1.15,0,0,1,.37.46,1.4,1.4,0,0,1,.11.6ZM49.33,159.26a6.83,6.83,0,0,0,.38,2.29,5.33,5.33,0,0,0,1.09,1.85,5,5,0,0,0,1.7,1.24,5.13,5.13,0,0,0,2.2.46,5.9,5.9,0,0,0,4.18-1.7,5.5,5.5,0,0,0,1.23-1.85,6,6,0,0,0,0-4.56A5.84,5.84,0,0,0,57,153.8a5.8,5.8,0,0,0-2.32-.47,5.13,5.13,0,0,0-2.2.47,5.29,5.29,0,0,0-1.7,1.29,5.86,5.86,0,0,0-1.09,1.9A6.89,6.89,0,0,0,49.33,159.26Z"/><path class="cls-2" d="M77.26,143.75a1,1,0,0,1,.38-.86,3.78,3.78,0,0,1,1.09-.55L83,140.87l.17,0h.16a1,1,0,0,1,.92.4,2,2,0,0,1,.23,1.05l0,5.11H87a1.34,1.34,0,0,1,1,.36,1.38,1.38,0,0,1,.37,1.06v3.59a1.52,1.52,0,0,1-.37,1.14,1.34,1.34,0,0,1-1,.36H84.41l0,15.7a1.31,1.31,0,0,1-.41,1.06,1.6,1.6,0,0,1-1.13.37h-4.2a1.26,1.26,0,0,1-1.43-1.43l0-15.7H75.32c-.95,0-1.43-.5-1.43-1.5v-3.59a1.26,1.26,0,0,1,1.43-1.42h1.92Z"/><path class="cls-2" d="M109.93,163.78a1.31,1.31,0,0,1,.49-.24,1.86,1.86,0,0,1,.36,0,1.27,1.27,0,0,1,.58.13,1.52,1.52,0,0,1,.54.56l2.08,3.14q.09.15.18.33a1,1,0,0,1,.08.3.94.94,0,0,1-.27.7,3.29,3.29,0,0,1-.59.47,13.58,13.58,0,0,1-3.33,1.7,11.38,11.38,0,0,1-3.84.64,12.33,12.33,0,0,1-3.23-.42,12,12,0,0,1-2.89-1.22,12.84,12.84,0,0,1-2.46-1.9,11.85,11.85,0,0,1-1.89-2.46,12.67,12.67,0,0,1-1.22-2.93,12.46,12.46,0,0,1,1.22-9.5,11.85,11.85,0,0,1,1.89-2.46,12.73,12.73,0,0,1,2.46-1.88,12.13,12.13,0,0,1,6.12-1.64,12.38,12.38,0,0,1,3.74.54,11.46,11.46,0,0,1,3.23,1.6l-.06-.06a2,2,0,0,1,.65.57,1.28,1.28,0,0,1,.25.81,1.32,1.32,0,0,1-.23.69l-1.65,2.8a1.5,1.5,0,0,1-1.27.92,1.27,1.27,0,0,1-.41-.09,1.88,1.88,0,0,1-.53-.29,8.77,8.77,0,0,0-1.76-.88,5.76,5.76,0,0,0-2-.34,5,5,0,0,0-2.16.47,5.21,5.21,0,0,0-1.68,1.29,6,6,0,0,0-1.09,1.9,6.86,6.86,0,0,0,0,4.56,5.49,5.49,0,0,0,1.09,1.85,4.93,4.93,0,0,0,1.68,1.24,5,5,0,0,0,2.16.46,5.26,5.26,0,0,0,2-.38A8.85,8.85,0,0,0,109.93,163.78Z"/><path class="cls-2" d="M128.63,149.92a4.91,4.91,0,0,1,1-1A7,7,0,0,1,131,148a9.21,9.21,0,0,1,1.79-.65,8.29,8.29,0,0,1,2.08-.25,7.75,7.75,0,0,1,3.68.82,7.21,7.21,0,0,1,2.56,2.22,9.84,9.84,0,0,1,1.51,3.29,15.84,15.84,0,0,1,.49,4v12.18a1.56,1.56,0,0,1-.31,1.06,1.16,1.16,0,0,1-1,.37h-4.3a1.63,1.63,0,0,1-1.09-.27,1.4,1.4,0,0,1-.3-1.05V157.44a3.52,3.52,0,0,0-.31-1.49,3.84,3.84,0,0,0-2-2,3.9,3.9,0,0,0-1.48-.29,3.34,3.34,0,0,0-1.31.27,3.84,3.84,0,0,0-1.15.76,4.27,4.27,0,0,0-.86,1.18,4,4,0,0,0-.4,1.53v12.27a1.76,1.76,0,0,1-.12.63,1.07,1.07,0,0,1-.36.49,1.78,1.78,0,0,1-.46.2,1.83,1.83,0,0,1-.49.06H123a1.5,1.5,0,0,1-1.16-.39,1.52,1.52,0,0,1-.35-1V141.83a1.49,1.49,0,0,1,.35-1,1.51,1.51,0,0,1,1.16-.4h4.2a2,2,0,0,1,1,.3,1,1,0,0,1,.36.49,1.63,1.63,0,0,1,.12.59Z"/><path class="cls-2" d="M165.22,149.27a1.55,1.55,0,0,1-.14-1.3q.24-.54,1.11-.54H171a1.47,1.47,0,0,1,.85.26,1.41,1.41,0,0,1,.51.75c.21.65.44,1.39.69,2.2s.52,1.64.8,2.48.56,1.68.83,2.51l.75,2.3c.23.7.44,1.31.62,1.83s.31.89.4,1.12l3.94-12.44a1.62,1.62,0,0,1,.55-.8,1.5,1.5,0,0,1,.86-.21h4.41a2.15,2.15,0,0,1,.82.13.72.72,0,0,1,.37.36,1,1,0,0,1,0,.51,3.17,3.17,0,0,1-.19.6l-2,5c.09.21.26.57.51,1.07s.53,1.07.84,1.71.64,1.31,1,2,.6,1.36.83,2l4.55-12.34a1.93,1.93,0,0,1,.5-.8,1.12,1.12,0,0,1,.75-.21h4.11a1.68,1.68,0,0,1,1.22.34c.23.22.24.64,0,1.26l-8.72,21.22a1.43,1.43,0,0,1-.51.56,1.72,1.72,0,0,1-1,.24h-2a1.87,1.87,0,0,1-1.06-.24,1.74,1.74,0,0,1-.54-.6l-3.45-8.44-3.41,8.48a2,2,0,0,1-.48.56,1.28,1.28,0,0,1-.84.24H175.3a1.82,1.82,0,0,1-1.05-.22,1.27,1.27,0,0,1-.46-.58Z"/><path class="cls-2" d="M206.22,139.47a1.46,1.46,0,0,1,.34-1.1,1.43,1.43,0,0,1,1-.33h4.31a1.61,1.61,0,0,1,1.05.33,1.33,1.33,0,0,1,.4,1.1v3.63a1.25,1.25,0,0,1-.1.48,2.38,2.38,0,0,1-.29.51,1.72,1.72,0,0,1-.45.4,1.25,1.25,0,0,1-.61.15H207.6c-.92,0-1.38-.51-1.38-1.54Zm0,9.41a1.59,1.59,0,0,1,.34-1,1.25,1.25,0,0,1,1-.43h4.25a1.37,1.37,0,0,1,.49.11,1.5,1.5,0,0,1,.48.29,1.7,1.7,0,0,1,.38.46,1.07,1.07,0,0,1,.16.59v20.74a1.37,1.37,0,0,1-.39,1.06,1.55,1.55,0,0,1-1.12.37H207.6a1.24,1.24,0,0,1-1.38-1.43Z"/><path class="cls-2" d="M223,143.75a1,1,0,0,1,.38-.86,4.07,4.07,0,0,1,1.09-.55l4.22-1.47.18,0H229a1,1,0,0,1,.92.4,2.15,2.15,0,0,1,.23,1.05l0,5.11h2.55a1.34,1.34,0,0,1,1,.36,1.42,1.42,0,0,1,.37,1.06v3.59a1.56,1.56,0,0,1-.37,1.14,1.34,1.34,0,0,1-1,.36h-2.55l0,15.7a1.34,1.34,0,0,1-.41,1.06,1.6,1.6,0,0,1-1.13.37h-4.2a1.27,1.27,0,0,1-1.44-1.43v-15.7H221c-.95,0-1.43-.5-1.43-1.5v-3.59a1.26,1.26,0,0,1,1.43-1.42H223Z"/><path class="cls-2" d="M248.37,149.92a4.91,4.91,0,0,1,1-1,7,7,0,0,1,1.43-.91,9.21,9.21,0,0,1,1.79-.65,8.37,8.37,0,0,1,2.09-.25,7.73,7.73,0,0,1,3.67.82,7.33,7.33,0,0,1,2.57,2.22,10,10,0,0,1,1.5,3.29,15.84,15.84,0,0,1,.49,4v12.18a1.61,1.61,0,0,1-.3,1.06,1.2,1.2,0,0,1-1,.37h-4.29a1.66,1.66,0,0,1-1.1-.27,1.4,1.4,0,0,1-.3-1.05V157.44a3.52,3.52,0,0,0-.31-1.49,3.82,3.82,0,0,0-3.52-2.29,3.34,3.34,0,0,0-1.31.27,3.84,3.84,0,0,0-1.15.76,4.48,4.48,0,0,0-.86,1.18,4,4,0,0,0-.4,1.53v12.27a1.76,1.76,0,0,1-.12.63,1.07,1.07,0,0,1-.36.49,1.65,1.65,0,0,1-.46.2,1.77,1.77,0,0,1-.49.06h-4.2a1.32,1.32,0,0,1-1.51-1.43V141.83a1.44,1.44,0,0,1,.36-1,1.48,1.48,0,0,1,1.15-.4h4.2a1.93,1.93,0,0,1,.95.3,1,1,0,0,1,.36.49,1.63,1.63,0,0,1,.12.59Z"/><path class="cls-2" d="M285,149.22a1.47,1.47,0,0,1,0-1.28c.19-.35.62-.53,1.27-.53h4.6a1.06,1.06,0,0,1,.76.29,1.77,1.77,0,0,1,.45.72l5.26,15,5.15-15a1.47,1.47,0,0,1,.52-.8,1.55,1.55,0,0,1,.87-.21h4.78a2,2,0,0,1,.82.14.88.88,0,0,1,.42.38.81.81,0,0,1,.08.52,1.86,1.86,0,0,1-.15.56l-1.54,3.82c-.56,1.39-1.14,2.82-1.74,4.32l-1.83,4.55-1.81,4.55-1.7,4.29c-.55,1.36-1.05,2.62-1.5,3.77s-.85,2.15-1.18,3-.59,1.54-.76,2l.05-.09a1.71,1.71,0,0,1-.46.81,1.2,1.2,0,0,1-.82.3h-4.3a1.58,1.58,0,0,1-1.14-.32,1.38,1.38,0,0,1-.31-1,.74.74,0,0,1,.07-.37.66.66,0,0,1,.1-.17l2.92-7.59Z"/><path class="cls-2" d="M314.75,159.26a12.32,12.32,0,0,1,.44-3.29,11.9,11.9,0,0,1,5.59-7.27,12.15,12.15,0,0,1,2.92-1.21,12.32,12.32,0,0,1,3.29-.43,12.12,12.12,0,0,1,8.61,3.52,12.34,12.34,0,0,1,2.61,3.87,12,12,0,0,1,1,4.81,12.14,12.14,0,0,1-3.56,8.67,11.71,11.71,0,0,1-2.46,1.9,12.1,12.1,0,0,1-2.91,1.22,12.35,12.35,0,0,1-3.24.42,12.73,12.73,0,0,1-3.29-.42,12.17,12.17,0,0,1-2.92-1.22,12,12,0,0,1-2.47-1.9,11.85,11.85,0,0,1-1.89-2.46,12.32,12.32,0,0,1-1.67-6.21Zm6.79,0a6.83,6.83,0,0,0,.38,2.29A5.31,5.31,0,0,0,323,163.4a4.88,4.88,0,0,0,1.69,1.24,5.22,5.22,0,0,0,2.24.46,5.05,5.05,0,0,0,2.19-.46,4.73,4.73,0,0,0,1.65-1.24,5.39,5.39,0,0,0,1-1.85,7.4,7.4,0,0,0,0-4.56,5.93,5.93,0,0,0-1-1.9,5,5,0,0,0-1.65-1.29,5.06,5.06,0,0,0-2.19-.47,5.22,5.22,0,0,0-2.24.47,5.14,5.14,0,0,0-1.69,1.29,5.83,5.83,0,0,0-1.08,1.9A6.89,6.89,0,0,0,321.54,159.26Z"/><path class="cls-2" d="M368.51,170.73a1.11,1.11,0,0,1-.52.26,2.35,2.35,0,0,1-.51.06h-2.81a1.26,1.26,0,0,1-.57-.12,1.2,1.2,0,0,1-.41-.33,1.77,1.77,0,0,1-.28-.46,4.29,4.29,0,0,1-.19-.54l-.39-1.82a4.3,4.3,0,0,1-.93,1.22,7.54,7.54,0,0,1-1.6,1.18,11,11,0,0,1-2.21.89,10.1,10.1,0,0,1-2.71.35,8.25,8.25,0,0,1-3.76-.82,8.1,8.1,0,0,1-2.76-2.23,9.74,9.74,0,0,1-1.7-3.3,13.87,13.87,0,0,1-.58-4V148.86a1.61,1.61,0,0,1,.31-1.06,1.18,1.18,0,0,1,1-.37h4.29a1.68,1.68,0,0,1,1.1.27,1.4,1.4,0,0,1,.3,1.05v12.12a3.89,3.89,0,0,0,.3,1.52,4.18,4.18,0,0,0,.83,1.26,3.78,3.78,0,0,0,1.22.87,3.55,3.55,0,0,0,1.48.32,5.31,5.31,0,0,0,1.45-.23,5,5,0,0,0,1.45-.69,4.2,4.2,0,0,0,1.11-1.22,3.42,3.42,0,0,0,.45-1.79v-12.1a1.76,1.76,0,0,1,.12-.63,1,1,0,0,1,.36-.49,1.73,1.73,0,0,1,.95-.26h4.2a1.5,1.5,0,0,1,1.16.39,1.52,1.52,0,0,1,.35,1v20.81a1.28,1.28,0,0,1-.16.65,1.17,1.17,0,0,1-.44.47Z"/><path class="cls-2" d="M377.17,148.81a1.28,1.28,0,0,1,.13-.61,1.23,1.23,0,0,1,.34-.43,1.52,1.52,0,0,1,.49-.25,1.64,1.64,0,0,1,.53-.09h2.8a1.05,1.05,0,0,1,.75.28,2.51,2.51,0,0,1,.47.71,6.53,6.53,0,0,1,.35,1,8.44,8.44,0,0,0,.35,1l1.11-1.21a8.44,8.44,0,0,1,1.18-1.06,5.75,5.75,0,0,1,1.38-.75,4.84,4.84,0,0,1,1.72-.29,9.76,9.76,0,0,1,1.8.15,7.33,7.33,0,0,1,1.49.44,8.62,8.62,0,0,1,1.41.73c.46.3,1,.65,1.51,1a1.31,1.31,0,0,1,.8,1.1,2,2,0,0,1-.31.95l-1.7,2.88a1.47,1.47,0,0,1-1.24.72,2,2,0,0,1-.84-.2,5.65,5.65,0,0,0-1.63-1.16,4.36,4.36,0,0,0-1.88-.38,3.82,3.82,0,0,0-1.28.2,3.53,3.53,0,0,0-1,.58,5.12,5.12,0,0,0-.84.89c-.26.35-.52.73-.78,1.15v13.47a1.47,1.47,0,0,1-.34,1.06,1.5,1.5,0,0,1-1.15.37h-4.18a1.27,1.27,0,0,1-1.45-1.43Z"/><path class="cls-2" d="M418.15,147.77a1,1,0,0,1,.51-.26,2.35,2.35,0,0,1,.51-.06H422a1.34,1.34,0,0,1,.58.12,1.3,1.3,0,0,1,.41.33,1.48,1.48,0,0,1,.26.46c.07.17.14.35.2.54l.39,1.63a4.72,4.72,0,0,1,.9-1.19,6.7,6.7,0,0,1,1.55-1.11,10.07,10.07,0,0,1,2.12-.83,10.75,10.75,0,0,1,2.7-.32,8.34,8.34,0,0,1,6.61,3,10.11,10.11,0,0,1,1.77,3.29,13.23,13.23,0,0,1,.6,4v12.18a1.56,1.56,0,0,1-.31,1.06,1.18,1.18,0,0,1-1,.37h-4.3a1.63,1.63,0,0,1-1.09-.27,1.4,1.4,0,0,1-.3-1.05V157.62a3.29,3.29,0,0,0-.36-1.51,4.58,4.58,0,0,0-1-1.27,4.77,4.77,0,0,0-1.35-.86,3.92,3.92,0,0,0-1.53-.32,3.43,3.43,0,0,0-1.37.3,4.4,4.4,0,0,0-1.28.83,5,5,0,0,0-1,1.24,3.52,3.52,0,0,0-.45,1.55v12.09a1.58,1.58,0,0,1-.13.63,1.07,1.07,0,0,1-.36.49,1.73,1.73,0,0,1-.45.2,1.9,1.9,0,0,1-.5.06h-4.2a1.3,1.3,0,0,1-1.5-1.43v-20.8a1.44,1.44,0,0,1,.15-.65,1.3,1.3,0,0,1,.44-.46Z"/><path class="cls-2" d="M468,168.22a12.46,12.46,0,0,1-3.69,2.35,11.07,11.07,0,0,1-4.33.85,12.63,12.63,0,0,1-8.79-3.51,12.36,12.36,0,0,1-2.72-3.87,11.71,11.71,0,0,1-1-4.86,12.41,12.41,0,0,1,.4-3.17,12.1,12.1,0,0,1,2.92-5.33,11.2,11.2,0,0,1,5.18-3.17,11.43,11.43,0,0,1,6.21,0,11.89,11.89,0,0,1,2.72,1.15,11.56,11.56,0,0,1,2.33,1.79,11.74,11.74,0,0,1,1.83,2.28,11.2,11.2,0,0,1,1.18,2.64,10,10,0,0,1,.42,2.89c0,.64,0,1.17,0,1.58a1.8,1.8,0,0,1-.29,1,1.41,1.41,0,0,1-.87.51,8.59,8.59,0,0,1-1.77.14H454.35a4.63,4.63,0,0,0,.75,2,4.81,4.81,0,0,0,1.31,1.28,5.57,5.57,0,0,0,1.59.68,6.91,6.91,0,0,0,1.58.2,6.57,6.57,0,0,0,1.37-.14,8.92,8.92,0,0,0,1.37-.37,7,7,0,0,0,1.21-.54,4,4,0,0,0,.88-.64,4.17,4.17,0,0,1,.51-.36.93.93,0,0,1,.46-.12.89.89,0,0,1,.49.16,4.44,4.44,0,0,1,.57.49l2,2.23a1.12,1.12,0,0,1,.31.83,1,1,0,0,1-.2.65A2.67,2.67,0,0,1,468,168.22Zm-9-15.49a3.58,3.58,0,0,0-1.4.29,5.45,5.45,0,0,0-1.28.77,6.5,6.5,0,0,0-1.06,1.1,6.71,6.71,0,0,0-.78,1.24h9.51a10.82,10.82,0,0,0-.85-1.33,5.61,5.61,0,0,0-1-1.08,4.68,4.68,0,0,0-1.34-.73A5.48,5.48,0,0,0,459.09,152.73Z"/><path class="cls-2" d="M474.82,170.34a.72.72,0,0,1,.09-.51q.15-.26.27-.42l7.4-10.43-7-10a2.51,2.51,0,0,1-.32-.52.88.88,0,0,1-.1-.51.59.59,0,0,1,.24-.39,1.27,1.27,0,0,1,.72-.16h5.83a.7.7,0,0,1,.55.27,7.38,7.38,0,0,1,.53.7l3.55,5.75c.24-.34.51-.76.82-1.28l1-1.6.95-1.61c.3-.52.56-1,.79-1.32a2.88,2.88,0,0,1,.58-.69,1,1,0,0,1,.64-.22h5.9a.87.87,0,0,1,.42.1.64.64,0,0,1,.3.26.57.57,0,0,1,.1.39,1,1,0,0,1-.24.48l-7.28,10.26L497.75,169a4,4,0,0,1,.38.67,1.47,1.47,0,0,1,.14.65.63.63,0,0,1-.27.49,1.41,1.41,0,0,1-.85.2h-6a1.35,1.35,0,0,1-1.25-1l-3.31-6-3.34,6a1.93,1.93,0,0,1-.52.66,1.06,1.06,0,0,1-.62.24h-6.47a.87.87,0,0,1-.44-.11.92.92,0,0,1-.32-.41Z"/><path class="cls-2" d="M506.73,143.75a1,1,0,0,1,.38-.86,3.92,3.92,0,0,1,1.09-.55l4.22-1.47.18,0h.15a1,1,0,0,1,.92.4,2,2,0,0,1,.24,1.05l0,5.11h2.54a1.34,1.34,0,0,1,1,.36,1.38,1.38,0,0,1,.37,1.06v3.59a1.52,1.52,0,0,1-.37,1.14,1.34,1.34,0,0,1-1,.36h-2.54l0,15.7a1.34,1.34,0,0,1-.41,1.06,1.63,1.63,0,0,1-1.14.37h-4.2a1.27,1.27,0,0,1-1.43-1.43l0-15.7H504.8q-1.44,0-1.44-1.5v-3.59a1.27,1.27,0,0,1,1.44-1.42h1.91Z"/><path class="cls-2" d="M540.85,147.77a1,1,0,0,1,.51-.26,2.35,2.35,0,0,1,.51-.06h2.81a1.26,1.26,0,0,1,.57.12,1.11,1.11,0,0,1,.41.33,1.74,1.74,0,0,1,.27.46c.07.17.14.35.2.54l.39,1.63a5.51,5.51,0,0,1,.8-1.19,5.62,5.62,0,0,1,1.32-1.11,7.94,7.94,0,0,1,1.9-.83,9.58,9.58,0,0,1,2.6-.32,9.33,9.33,0,0,1,2.13.23A6.39,6.39,0,0,1,557,148a6.73,6.73,0,0,1,1.45,1.11,10.43,10.43,0,0,1,1.22,1.51,6.07,6.07,0,0,1,1.05-1.2,8.18,8.18,0,0,1,1.67-1.15,10.72,10.72,0,0,1,2.15-.86,9.48,9.48,0,0,1,2.53-.33,7.86,7.86,0,0,1,3.7.82,7.44,7.44,0,0,1,2.63,2.22,10,10,0,0,1,1.58,3.29,15.39,15.39,0,0,1,.52,4v12.18a1.61,1.61,0,0,1-.31,1.06,1.2,1.2,0,0,1-1,.37h-4.29a1.66,1.66,0,0,1-1.1-.27,1.4,1.4,0,0,1-.3-1.05V157.44a4.24,4.24,0,0,0-.25-1.49,3.73,3.73,0,0,0-.69-1.2,3.12,3.12,0,0,0-1.09-.8,3.47,3.47,0,0,0-1.42-.29,3.19,3.19,0,0,0-1.34.28,3.5,3.5,0,0,0-1.12.77,3.76,3.76,0,0,0-.77,1.19,4.06,4.06,0,0,0-.29,1.54v12.18a1.56,1.56,0,0,1-.31,1.06,1.18,1.18,0,0,1-1,.37H556a1.63,1.63,0,0,1-1.09-.27,1.4,1.4,0,0,1-.3-1.05V157.44a4.75,4.75,0,0,0-.23-1.49,3.69,3.69,0,0,0-.67-1.2,3.1,3.1,0,0,0-1.06-.8,3.44,3.44,0,0,0-2.72,0,3.84,3.84,0,0,0-1.15.76,4.48,4.48,0,0,0-.86,1.18,4,4,0,0,0-.4,1.53v12.27a1.76,1.76,0,0,1-.12.63,1.07,1.07,0,0,1-.36.49,1.73,1.73,0,0,1-.45.2,1.9,1.9,0,0,1-.5.06h-4.2a1.32,1.32,0,0,1-1.51-1.43v-20.8a1.45,1.45,0,0,1,.16-.65,1.22,1.22,0,0,1,.44-.46Z"/><path class="cls-2" d="M583,159.26a12.14,12.14,0,0,1,3.56-8.68A11.94,11.94,0,0,1,589,148.7a12.29,12.29,0,0,1,14.82,1.88,12.34,12.34,0,0,1,2.61,3.87,12.28,12.28,0,0,1-2.61,13.48,12,12,0,0,1-2.46,1.9,12,12,0,0,1-6.15,1.64,12.68,12.68,0,0,1-3.29-.42,12.17,12.17,0,0,1-2.92-1.22,12,12,0,0,1-2.47-1.9,12.25,12.25,0,0,1-1.9-2.46,12.67,12.67,0,0,1-1.22-2.93A12.25,12.25,0,0,1,583,159.26Zm6.79,0a6.59,6.59,0,0,0,.38,2.29,5.31,5.31,0,0,0,1.08,1.85,4.88,4.88,0,0,0,1.69,1.24,5.22,5.22,0,0,0,2.24.46,5,5,0,0,0,2.18-.46A4.67,4.67,0,0,0,599,163.4a5.39,5.39,0,0,0,1-1.85,7.4,7.4,0,0,0,0-4.56,5.93,5.93,0,0,0-1-1.9,4.93,4.93,0,0,0-1.66-1.29,5,5,0,0,0-2.18-.47,5.22,5.22,0,0,0-2.24.47,5.14,5.14,0,0,0-1.69,1.29,5.83,5.83,0,0,0-1.08,1.9A6.64,6.64,0,0,0,589.77,159.26Z"/><path class="cls-2" d="M612.12,149.27A1.51,1.51,0,0,1,612,148c.15-.36.52-.54,1.1-.54h4.76a1.43,1.43,0,0,1,.85.26,1.41,1.41,0,0,1,.51.75c.21.65.44,1.39.7,2.21s.52,1.66.8,2.52.55,1.72.82,2.56.53,1.64.76,2.35.43,1.33.61,1.86.31.9.4,1.12l3.94-12.62a1.69,1.69,0,0,1,.55-.8,1.53,1.53,0,0,1,.87-.21h4.89a2.06,2.06,0,0,1,.81.13.75.75,0,0,1,.38.36.86.86,0,0,1,0,.51,3.11,3.11,0,0,1-.18.6l-8.85,21.22a2.22,2.22,0,0,1-.49.56,1.23,1.23,0,0,1-.83.24h-2.22a1.86,1.86,0,0,1-1.05-.22,1.25,1.25,0,0,1-.45-.58Z"/><path class="cls-2" d="M641.12,139.47a1.46,1.46,0,0,1,.34-1.1,1.43,1.43,0,0,1,1-.33h4.31a1.57,1.57,0,0,1,1.05.33,1.33,1.33,0,0,1,.4,1.1v3.63a1.25,1.25,0,0,1-.1.48,2,2,0,0,1-.29.51,1.58,1.58,0,0,1-.45.4,1.23,1.23,0,0,1-.61.15H642.5c-.92,0-1.38-.51-1.38-1.54Zm0,9.41a1.59,1.59,0,0,1,.34-1,1.25,1.25,0,0,1,1-.43h4.26a1.28,1.28,0,0,1,.48.11,1.5,1.5,0,0,1,.48.29,1.7,1.7,0,0,1,.38.46,1.07,1.07,0,0,1,.16.59v20.74a1.37,1.37,0,0,1-.39,1.06,1.54,1.54,0,0,1-1.11.37H642.5a1.24,1.24,0,0,1-1.38-1.43Z"/><path class="cls-2" d="M676.23,168.22a12.41,12.41,0,0,1-3.68,2.35,11.16,11.16,0,0,1-4.34.85,12.63,12.63,0,0,1-8.79-3.51A12.36,12.36,0,0,1,656.7,164a11.71,11.71,0,0,1-1-4.86,12.41,12.41,0,0,1,.4-3.17,12.61,12.61,0,0,1,1.13-2.87,12.28,12.28,0,0,1,1.79-2.46,11.2,11.2,0,0,1,5.18-3.17,11.27,11.27,0,0,1,3.21-.45,11.14,11.14,0,0,1,3,.41,11.89,11.89,0,0,1,2.72,1.15,11.56,11.56,0,0,1,2.33,1.79,11.74,11.74,0,0,1,1.83,2.28,10.81,10.81,0,0,1,1.18,2.64,10,10,0,0,1,.42,2.89c0,.64,0,1.17,0,1.58a1.8,1.8,0,0,1-.29,1,1.39,1.39,0,0,1-.86.51,8.77,8.77,0,0,1-1.78.14H662.54a4.64,4.64,0,0,0,.76,2,4.55,4.55,0,0,0,1.31,1.28,5.4,5.4,0,0,0,1.58.68,6.91,6.91,0,0,0,1.58.2,6.57,6.57,0,0,0,1.37-.14,8.92,8.92,0,0,0,1.37-.37,7,7,0,0,0,1.21-.54,4,4,0,0,0,.88-.64,4.17,4.17,0,0,1,.51-.36.93.93,0,0,1,.46-.12.89.89,0,0,1,.49.16,4.44,4.44,0,0,1,.57.49l2,2.23a1.3,1.3,0,0,1,.26.44,1.32,1.32,0,0,1,.06.39,1,1,0,0,1-.21.65A2.67,2.67,0,0,1,676.23,168.22Zm-9-15.49a3.58,3.58,0,0,0-1.4.29,5.19,5.19,0,0,0-1.27.77,6.19,6.19,0,0,0-1.07,1.1,6.71,6.71,0,0,0-.78,1.24h9.51a10.82,10.82,0,0,0-.85-1.33,5.61,5.61,0,0,0-1-1.08A4.68,4.68,0,0,0,669,153,5.48,5.48,0,0,0,667.28,152.73Z"/></g></g></svg>